

| C | L | Y | P | P | E | D |   | P | R | E | S | E | N | T | S |

[img]http://lookpic.com/O/i2/2000/2uKdoyWC.jpeg[/img]


BLOOD CRIME 2002




For burned-out Seattle cop Daniel Pruitt, a camping trip turns hellish when his wife, Jessica, is savagely attacked in the forest. En route to the hospital, the Pruitts collide with a semi, and Jessica identifies the driver as her assailant. Enraged, Pruitt pummels the man. Once at the ER, however, she changes her mind and names a male nurse as her attacker. But before Pruitt can make amends, he learns that his victim, the son of Sheriff Morgan McKenna, is dead.

Director:
William A. Graham
Writers:
Mark Lawrence Miller, Preston A. Whitmore II
Stars:
James Caan, Johnathon Schaech and Elizabeth Lackey 





General
Complete name                    : Blood Crime 2002
Format                           : AVI
Format/Info                      : Audio Video Interleave
File size                        : 1.36 GiB
Duration                         : 1h 24mn
Overal bit rate                  : 2148 Kbps
Movie name                       : Blood Crime 2002
Product                          : DVD VIDEO

Video
Format                           : MPEG-4 Visual
Format profile                   : Simple@L3
Format settings, BVOP            : No
Format settings, QPel            : No
Format settings, GMC             : No warppoints
Format settings, Matrix          : Default
Codec ID                         : XVID
Codec ID/Hint                    : XviD
Duration                         : 1h 24mn
Bit rate                         : 1945 Kbps
Width                            : 720 pixels
Height                           : 416 pixels
Display aspect ratio             : 16/9
Frame rate                       : 25.000 fps
Resolution                       : 8 bits
Colorimetry                      : 4:2:0
Scan type                        : Progressive
Bits/(Pixel*Frame)               : 0.260
Stream size                      : 1.15 GiB
Writing library                  : XviD 1.1.2 (UTC 2006-11-01)

Audio
Format                           : AC-3
Format/Info                      : Audio Coding 3
Format profile                   : Dolby Digital
Codec ID                         : 2000
Duration                         : 1h 24mn
Bit rate mode                    : Constant
Bit rate                         : 192 Kbps
Channel(s)                       : 2 channels
Channel positions                : L R
Sampling rate                    : 48.0 KHz
Stream size                      : 116 MiB
Language                         : undefined
